<?xml version="1.0" encoding="UTF-8" standalone="no"?>
<svg xmlns:dc="http://purl.org/dc/elements/1.1/" xmlns:cc="http://creativecommons.org/ns#" xmlns:rdf="http://www.w3.org/1999/02/22-rdf-syntax-ns#" xmlns:svg="http://www.w3.org/2000/svg" xmlns="http://www.w3.org/2000/svg" xmlns:sodipodi="http://sodipodi.sourceforge.net/DTD/sodipodi-0.dtd" xmlns:inkscape="http://www.inkscape.org/namespaces/inkscape" width="40.041687mm" height="20.50687mm" viewBox="0 0 40.041687 20.50687" version="1.1" id="svg5600" inkscape:version="1.0.1 (3bc2e813f5, 2020-09-07)" sodipodi:docname="Logo IMT Business School.svg">
  <defs id="defs5594">
    <clipPath clipPathUnits="userSpaceOnUse" id="clipPath5241">
      <path d="M 0,0 H 623.622 V 566.929 H 0 Z" id="path5239"/>
    </clipPath>
  </defs>
  <sodipodi:namedview id="base" pagecolor="#ffffff" bordercolor="#666666" borderopacity="1.0" inkscape:pageopacity="0.0" inkscape:pageshadow="2" inkscape:zoom="0.35" inkscape:cx="-161.47354" inkscape:cy="353.03885" inkscape:document-units="mm" inkscape:current-layer="layer1" inkscape:document-rotation="0" showgrid="false" fit-margin-top="0" fit-margin-left="0" fit-margin-right="0" fit-margin-bottom="0" inkscape:window-width="1600" inkscape:window-height="837" inkscape:window-x="-8" inkscape:window-y="-8" inkscape:window-maximized="1"/>
  <metadata id="metadata5597">
    <rdf:RDF>
      <cc:Work rdf:about="">
        <dc:format>image/svg+xml</dc:format>
        <dc:type rdf:resource="http://purl.org/dc/dcmitype/StillImage"/>
        <dc:title/>
      </cc:Work>
    </rdf:RDF>
  </metadata>
  <g inkscape:label="Calque 1" inkscape:groupmode="layer" id="layer1" transform="translate(-148.55654,-54.75847)">
    <g id="g6204">
      <g id="g5223" transform="matrix(0.35277777,0,0,-0.35277777,148.56264,54.75847)">
        <path d="M 0,0 V -32.349 L 32.347,0 Z" style="fill:#00b4d5;fill-opacity:1;fill-rule:nonzero;stroke:none" id="path5225"/>
      </g>
      <g id="g5227" transform="matrix(0.35277777,0,0,-0.35277777,171.47474,54.75847)">
        <path d="M 0,0 -16.174,-16.175 -32.349,0 V -32.349 H 0 Z" style="fill:#00b4d5;fill-opacity:1;fill-rule:nonzero;stroke:none" id="path5229"/>
      </g>
      <g id="g5231" transform="matrix(0.35277777,0,0,-0.35277777,177.18064,54.75847)">
        <path d="M 0,0 -16.175,-16.174 H 0 V -32.349 L 32.347,0 Z" style="fill:#00b4d5;fill-opacity:1;fill-rule:nonzero;stroke:none" id="path5233"/>
      </g>
      <g id="g5235" transform="matrix(0.35277777,0,0,-0.35277777,135.85647,87.96534)">
        <g id="g5237" clip-path="url(#clipPath5241)">
          <g id="g5243" transform="translate(147.6502,53.9)">
            <path d="m 0,0 c -0.391,0 -0.747,-0.085 -1.065,-0.253 -0.301,-0.169 -0.553,-0.433 -0.756,-0.793 -0.116,0.3 -0.286,0.545 -0.511,0.737 C -2.611,-0.103 -2.977,0 -3.43,0 -3.908,0 -4.298,-0.12 -4.599,-0.36 -4.769,-0.495 -4.95,-0.722 -5.142,-1.04 v 0.894 h -1.506 v -6.117 h 1.571 v 3.688 c 0,0.334 0.042,0.585 0.125,0.754 0.152,0.295 0.449,0.444 0.892,0.444 0.38,0 0.635,-0.149 0.766,-0.444 0.072,-0.165 0.109,-0.429 0.109,-0.793 v -3.649 h 1.56 v 3.649 c 0,0.274 0.041,0.508 0.125,0.703 0.163,0.367 0.458,0.55 0.886,0.55 0.369,0 0.623,-0.142 0.761,-0.427 0.072,-0.15 0.109,-0.341 0.109,-0.573 v -3.902 h 1.587 l 0.011,3.862 c 0,0.398 -0.019,0.699 -0.054,0.906 -0.059,0.31 -0.171,0.573 -0.338,0.787 -0.206,0.262 -0.436,0.446 -0.69,0.55 C 0.518,-0.053 0.261,0 0,0 m -7.492,-3.207 c 0,0.884 -0.25,1.649 -0.75,2.297 -0.501,0.648 -1.26,0.972 -2.278,0.972 -1.019,0 -1.778,-0.324 -2.278,-0.972 -0.5,-0.648 -0.75,-1.413 -0.75,-2.297 0,-0.899 0.25,-1.668 0.75,-2.306 0.5,-0.638 1.259,-0.957 2.278,-0.957 1.018,0 1.777,0.319 2.278,0.957 0.5,0.638 0.75,1.407 0.75,2.306 m -3.034,-1.92 c -0.453,0 -0.802,0.166 -1.046,0.499 -0.245,0.334 -0.367,0.807 -0.367,1.421 0,0.614 0.122,1.086 0.367,1.417 0.244,0.331 0.593,0.497 1.046,0.497 0.453,0 0.801,-0.166 1.044,-0.497 0.243,-0.331 0.364,-0.803 0.364,-1.417 0,-0.614 -0.121,-1.087 -0.364,-1.421 -0.243,-0.333 -0.591,-0.499 -1.044,-0.499 m -3.488,2.794 c -0.087,0.873 -0.368,1.482 -0.841,1.827 -0.474,0.345 -1.082,0.517 -1.825,0.517 -0.875,0 -1.56,-0.292 -2.057,-0.877 -0.497,-0.585 -0.746,-1.402 -0.746,-2.453 0,-0.932 0.225,-1.69 0.675,-2.274 0.45,-0.585 1.152,-0.877 2.106,-0.877 0.954,0 1.674,0.35 2.16,1.051 0.304,0.435 0.475,0.895 0.511,1.382 h -1.582 c -0.032,-0.322 -0.125,-0.584 -0.277,-0.786 -0.153,-0.203 -0.411,-0.304 -0.774,-0.304 -0.512,0 -0.861,0.255 -1.046,0.764 -0.102,0.273 -0.153,0.634 -0.153,1.083 0,0.471 0.051,0.848 0.153,1.132 0.192,0.536 0.55,0.804 1.073,0.804 0.367,0 0.638,-0.123 0.812,-0.371 0.12,-0.183 0.195,-0.389 0.223,-0.618 z m -8.709,4.705 -1.043,-1.681 h 1.119 l 1.653,1.681 z m -0.103,-2.344 c -0.868,0 -1.575,-0.283 -2.119,-0.85 -0.544,-0.566 -0.816,-1.38 -0.816,-2.442 0,-1.132 0.301,-1.95 0.904,-2.453 0.603,-0.502 1.298,-0.753 2.087,-0.753 0.955,0 1.698,0.297 2.229,0.893 0.341,0.375 0.533,0.744 0.574,1.108 h -1.581 c -0.092,-0.18 -0.199,-0.321 -0.319,-0.422 -0.221,-0.187 -0.508,-0.281 -0.86,-0.281 -0.333,0 -0.618,0.077 -0.855,0.231 -0.388,0.247 -0.595,0.678 -0.619,1.293 h 4.315 c 0.008,0.529 -0.009,0.934 -0.051,1.216 -0.072,0.48 -0.229,0.902 -0.472,1.266 -0.269,0.413 -0.611,0.716 -1.024,0.907 -0.413,0.191 -0.878,0.287 -1.393,0.287 m 0,-1.321 c 0.366,0 0.672,-0.11 0.919,-0.331 0.247,-0.22 0.385,-0.542 0.413,-0.967 h -2.669 c 0.056,0.398 0.194,0.714 0.413,0.948 0.219,0.233 0.527,0.35 0.924,0.35 m -3.775,3.317 h -1.549 v -8.286 h 1.549 z m -5.113,0.348 -1.044,-1.681 h 1.12 l 1.653,1.681 z m -0.104,-2.344 c -0.868,0 -1.575,-0.283 -2.118,-0.85 -0.545,-0.566 -0.817,-1.38 -0.817,-2.442 0,-1.132 0.302,-1.95 0.904,-2.453 0.603,-0.502 1.299,-0.753 2.087,-0.753 0.956,0 1.699,0.297 2.229,0.893 0.342,0.375 0.533,0.744 0.575,1.108 h -1.582 c -0.092,-0.18 -0.198,-0.321 -0.319,-0.422 -0.22,-0.187 -0.507,-0.281 -0.86,-0.281 -0.333,0 -0.618,0.077 -0.854,0.231 -0.389,0.247 -0.596,0.678 -0.62,1.293 h 4.316 c 0.007,0.529 -0.01,0.934 -0.051,1.216 -0.073,0.48 -0.23,0.902 -0.472,1.266 -0.27,0.413 -0.611,0.716 -1.024,0.907 -0.413,0.191 -0.878,0.287 -1.394,0.287 m 0.001,-1.321 c 0.365,0 0.672,-0.11 0.918,-0.331 0.248,-0.22 0.385,-0.542 0.414,-0.967 h -2.669 c 0.056,0.398 0.193,0.714 0.412,0.948 0.219,0.233 0.527,0.35 0.925,0.35 m -8.885,3.317 V 0.556 h 2.409 v -6.819 h 1.684 v 6.819 h 2.398 v 1.468 z m -2.654,-5.835 h 3.033 v 1.518 h -3.033 z m -6.033,-0.495 c 0,-0.63 0.222,-1.148 0.667,-1.554 0.445,-0.407 1.134,-0.61 2.068,-0.61 0.914,0 1.591,0.192 2.028,0.576 0.438,0.384 0.657,0.88 0.657,1.487 0,0.46 -0.153,0.845 -0.457,1.152 -0.308,0.304 -0.771,0.53 -1.388,0.68 -0.925,0.21 -1.465,0.358 -1.617,0.444 -0.153,0.083 -0.229,0.216 -0.229,0.4 0,0.146 0.072,0.273 0.215,0.382 0.143,0.108 0.384,0.163 0.722,0.163 0.411,0 0.702,-0.109 0.873,-0.326 0.091,-0.12 0.147,-0.283 0.169,-0.489 h 1.549 c -0.07,0.749 -0.337,1.277 -0.804,1.582 -0.467,0.306 -1.071,0.458 -1.811,0.458 -0.781,0 -1.387,-0.203 -1.817,-0.61 -0.43,-0.406 -0.645,-0.892 -0.645,-1.459 0,-0.479 0.137,-0.846 0.413,-1.101 0.275,-0.259 0.749,-0.474 1.423,-0.647 0.935,-0.228 1.475,-0.39 1.62,-0.483 0.146,-0.094 0.218,-0.231 0.218,-0.411 0,-0.187 -0.09,-0.327 -0.27,-0.421 -0.18,-0.094 -0.423,-0.141 -0.729,-0.141 -0.521,0 -0.878,0.107 -1.071,0.321 -0.109,0.119 -0.18,0.322 -0.213,0.607 z m -3.275,4.334 c -0.868,0 -1.575,-0.283 -2.119,-0.85 -0.544,-0.566 -0.816,-1.38 -0.816,-2.442 0,-1.132 0.302,-1.95 0.904,-2.453 0.603,-0.502 1.299,-0.753 2.087,-0.753 0.955,0 1.698,0.297 2.229,0.893 0.341,0.375 0.533,0.744 0.575,1.108 h -1.582 c -0.092,-0.18 -0.199,-0.321 -0.319,-0.422 -0.221,-0.187 -0.507,-0.281 -0.86,-0.281 -0.333,0 -0.618,0.077 -0.854,0.231 -0.389,0.247 -0.596,0.678 -0.62,1.293 h 4.316 c 0.007,0.529 -0.01,0.934 -0.052,1.216 -0.072,0.48 -0.229,0.902 -0.472,1.266 -0.269,0.413 -0.61,0.716 -1.023,0.907 -0.414,0.191 -0.878,0.287 -1.394,0.287 m 0.001,-1.321 c 0.365,0 0.671,-0.11 0.918,-0.331 0.247,-0.22 0.385,-0.542 0.413,-0.967 h -2.669 c 0.056,0.398 0.194,0.714 0.413,0.948 0.219,0.233 0.527,0.35 0.925,0.35 m -5.787,1.304 c -0.487,0 -0.89,-0.123 -1.207,-0.371 -0.177,-0.139 -0.365,-0.365 -0.563,-0.68 v 0.894 h -1.501 v -6.117 h 1.55 v 3.317 c 0,0.379 0.05,0.69 0.151,0.933 0.194,0.462 0.552,0.692 1.074,0.692 0.424,0 0.712,-0.157 0.863,-0.473 0.083,-0.172 0.124,-0.419 0.124,-0.741 v -3.728 h 1.587 v 4.127 c 0,0.768 -0.194,1.318 -0.581,1.65 -0.389,0.331 -0.887,0.497 -1.497,0.497 m -6.043,-6.274 h 1.571 v 6.127 h -1.571 z m 1.571,8.337 h -1.571 V 0.596 h 1.571 z m -6.681,-6.566 -1.459,6.516 h -2.436 v -8.287 h 1.56 v 5.605 c 0,0.161 -0.002,0.387 -0.005,0.677 -0.004,0.291 -0.005,0.515 -0.005,0.672 l 1.507,-6.954 h 1.627 l 1.518,6.954 c 0,-0.157 -0.002,-0.381 -0.005,-0.672 -0.003,-0.29 -0.005,-0.516 -0.005,-0.677 v -5.605 h 1.559 v 8.287 h -2.409 z m -10.13,3.16 v -3.772 c 0,-0.383 0.087,-0.666 0.261,-0.849 0.268,-0.289 0.768,-0.42 1.5,-0.394 l 0.734,0.028 v 1.198 c -0.051,-0.004 -0.103,-0.007 -0.155,-0.009 -0.052,-0.002 -0.103,-0.003 -0.149,-0.003 -0.316,0 -0.504,0.031 -0.566,0.093 -0.061,0.062 -0.092,0.219 -0.092,0.47 v 3.238 h 0.962 v 1.141 H -78.2 v 1.709 h -1.533 v -1.709 h -0.826 v -1.141 z m -6.786,1.197 v -3.693 c 0,-0.701 0.084,-1.232 0.254,-1.591 0.304,-0.652 0.893,-0.978 1.768,-0.978 0.303,0 0.568,0.041 0.793,0.123 0.227,0.083 0.46,0.236 0.703,0.461 0.079,0.071 0.148,0.154 0.206,0.247 0.057,0.094 0.094,0.151 0.108,0.169 v -0.866 h 1.506 v 6.128 h -1.571 v -3.334 c 0,-0.393 -0.051,-0.71 -0.152,-0.95 -0.195,-0.442 -0.555,-0.663 -1.081,-0.663 -0.411,0 -0.687,0.156 -0.828,0.467 -0.079,0.176 -0.119,0.438 -0.119,0.787 v 3.693 z m -3.166,-1.197 v -3.772 c 0,-0.383 0.087,-0.666 0.261,-0.849 0.268,-0.289 0.768,-0.42 1.5,-0.394 l 0.734,0.028 v 1.198 c -0.051,-0.004 -0.103,-0.007 -0.155,-0.009 -0.052,-0.002 -0.102,-0.003 -0.149,-0.003 -0.316,0 -0.504,0.031 -0.566,0.093 -0.061,0.062 -0.092,0.219 -0.092,0.47 v 3.238 h 0.962 v 1.141 h -0.962 v 1.709 h -1.533 v -1.709 h -0.826 v -1.141 z m -3.037,-4.931 h 1.571 v 6.127 h -1.571 z m 1.571,8.337 h -1.571 V 0.596 h 1.571 z m -4.889,-3.406 v -3.772 c 0,-0.383 0.087,-0.666 0.261,-0.849 0.268,-0.289 0.768,-0.42 1.5,-0.394 l 0.734,0.028 v 1.198 c -0.05,-0.004 -0.102,-0.007 -0.155,-0.009 -0.052,-0.002 -0.102,-0.003 -0.149,-0.003 -0.316,0 -0.504,0.031 -0.566,0.093 -0.061,0.062 -0.092,0.219 -0.092,0.47 v 3.238 h 0.962 v 1.141 h -0.962 v 1.709 h -1.533 v -1.709 h -0.826 v -1.141 z m -6.542,-2.974 c 0,-0.63 0.222,-1.148 0.667,-1.554 0.445,-0.407 1.134,-0.61 2.067,-0.61 0.915,0 1.591,0.192 2.029,0.576 0.437,0.384 0.656,0.88 0.656,1.487 0,0.46 -0.152,0.845 -0.456,1.152 -0.309,0.304 -0.771,0.53 -1.388,0.68 -0.926,0.21 -1.465,0.358 -1.618,0.444 -0.153,0.083 -0.229,0.216 -0.229,0.4 0,0.146 0.072,0.273 0.216,0.382 0.143,0.108 0.384,0.163 0.722,0.163 0.411,0 0.701,-0.109 0.872,-0.326 0.091,-0.12 0.147,-0.283 0.169,-0.489 h 1.549 c -0.069,0.749 -0.337,1.277 -0.803,1.582 -0.467,0.306 -1.071,0.458 -1.811,0.458 -0.781,0 -1.387,-0.203 -1.817,-0.61 -0.431,-0.406 -0.646,-0.892 -0.646,-1.459 0,-0.479 0.138,-0.846 0.413,-1.101 0.275,-0.259 0.75,-0.474 1.423,-0.647 0.935,-0.228 1.476,-0.39 1.621,-0.483 0.145,-0.094 0.218,-0.231 0.218,-0.411 0,-0.187 -0.09,-0.327 -0.27,-0.421 -0.181,-0.094 -0.424,-0.141 -0.73,-0.141 -0.521,0 -0.878,0.107 -1.07,0.321 -0.11,0.119 -0.18,0.322 -0.213,0.607 z m -2.88,4.317 c -0.487,0 -0.89,-0.123 -1.207,-0.371 -0.177,-0.139 -0.365,-0.365 -0.563,-0.68 v 0.894 h -1.501 v -6.117 h 1.55 v 3.317 c 0,0.379 0.05,0.69 0.151,0.933 0.194,0.462 0.552,0.692 1.074,0.692 0.424,0 0.712,-0.157 0.863,-0.473 0.083,-0.172 0.124,-0.419 0.124,-0.741 v -3.728 h 1.587 v 4.127 c 0,0.768 -0.194,1.318 -0.581,1.65 -0.389,0.331 -0.887,0.497 -1.497,0.497 m -4.525,2.013 h -1.663 v -8.286 h 1.663 z" style="fill:#000000;fill-opacity:1;fill-rule:nonzero;stroke:none" id="path5245"/>
          </g>
          <path d="m 120.819,44.5 h -1.549 v -8.286 h 1.549 z m -2.437,-5.231 c 0,0.884 -0.25,1.649 -0.75,2.297 -0.5,0.648 -1.26,0.972 -2.278,0.972 -1.019,0 -1.778,-0.324 -2.278,-0.972 -0.5,-0.648 -0.75,-1.413 -0.75,-2.297 0,-0.899 0.25,-1.667 0.75,-2.306 0.5,-0.638 1.259,-0.957 2.278,-0.957 1.018,0 1.778,0.319 2.278,0.957 0.5,0.639 0.75,1.407 0.75,2.306 m -3.034,-1.92 c -0.452,0 -0.801,0.167 -1.046,0.5 -0.245,0.333 -0.367,0.807 -0.367,1.42 0,0.614 0.122,1.086 0.367,1.418 0.245,0.331 0.594,0.496 1.046,0.496 0.453,0 0.801,-0.165 1.044,-0.496 0.243,-0.332 0.364,-0.804 0.364,-1.418 0,-0.613 -0.121,-1.087 -0.364,-1.42 -0.243,-0.333 -0.591,-0.5 -1.044,-0.5 m -3.544,1.92 c 0,0.884 -0.25,1.649 -0.75,2.297 -0.5,0.648 -1.259,0.972 -2.278,0.972 -1.018,0 -1.777,-0.324 -2.277,-0.972 -0.5,-0.648 -0.75,-1.413 -0.75,-2.297 0,-0.899 0.25,-1.667 0.75,-2.306 0.5,-0.638 1.259,-0.957 2.277,-0.957 1.019,0 1.778,0.319 2.278,0.957 0.5,0.639 0.75,1.407 0.75,2.306 m -3.033,-1.92 c -0.453,0 -0.802,0.167 -1.047,0.5 -0.244,0.333 -0.367,0.807 -0.367,1.42 0,0.614 0.123,1.086 0.367,1.418 0.245,0.331 0.594,0.496 1.047,0.496 0.453,0 0.801,-0.165 1.044,-0.496 0.242,-0.332 0.364,-0.804 0.364,-1.418 0,-0.613 -0.122,-1.087 -0.364,-1.42 -0.243,-0.333 -0.591,-0.5 -1.044,-0.5 m -5.926,5.155 c -0.325,0 -0.635,-0.07 -0.928,-0.211 -0.295,-0.14 -0.553,-0.388 -0.777,-0.744 v 2.923 h -1.549 v -8.258 h 1.549 v 3.32 c 0,0.525 0.105,0.93 0.315,1.213 0.211,0.283 0.519,0.425 0.926,0.425 0.392,0 0.658,-0.143 0.798,-0.428 0.108,-0.202 0.162,-0.469 0.162,-0.799 v -3.731 h 1.582 v 3.601 c 0,0.548 -0.018,0.942 -0.054,1.184 -0.036,0.242 -0.135,0.478 -0.298,0.706 -0.191,0.27 -0.435,0.471 -0.733,0.602 -0.298,0.132 -0.629,0.197 -0.993,0.197 m -4.091,-2.361 c -0.087,0.873 -0.368,1.482 -0.841,1.827 -0.473,0.345 -1.082,0.518 -1.825,0.518 -0.875,0 -1.56,-0.293 -2.057,-0.878 -0.498,-0.584 -0.746,-1.402 -0.746,-2.453 0,-0.931 0.225,-1.69 0.675,-2.274 0.45,-0.585 1.152,-0.877 2.106,-0.877 0.954,0 1.674,0.35 2.16,1.051 0.304,0.435 0.475,0.896 0.511,1.383 h -1.582 c -0.032,-0.322 -0.125,-0.585 -0.277,-0.787 -0.153,-0.202 -0.411,-0.304 -0.774,-0.304 -0.513,0 -0.861,0.255 -1.046,0.765 -0.102,0.273 -0.153,0.633 -0.153,1.082 0,0.471 0.051,0.848 0.153,1.133 0.192,0.536 0.55,0.804 1.073,0.804 0.367,0 0.638,-0.124 0.812,-0.371 0.12,-0.184 0.195,-0.39 0.223,-0.619 z M 86.079,38.772 c 0,-0.863 0.302,-1.54 0.906,-2.033 C 87.59,36.247 88.419,36 89.474,36 c 1.033,0 1.832,0.251 2.398,0.751 0.566,0.5 0.849,1.129 0.849,1.886 0,0.738 -0.238,1.302 -0.716,1.692 -0.308,0.251 -0.77,0.451 -1.386,0.601 l -1.406,0.343 c -0.543,0.132 -0.898,0.246 -1.065,0.343 -0.26,0.146 -0.39,0.367 -0.39,0.663 0,0.323 0.132,0.574 0.396,0.754 0.264,0.179 0.617,0.269 1.059,0.269 0.397,0 0.73,-0.069 0.997,-0.207 0.402,-0.21 0.617,-0.565 0.647,-1.063 h 1.609 c -0.03,0.881 -0.346,1.552 -0.949,2.016 -0.604,0.462 -1.333,0.694 -2.188,0.694 -1.024,0 -1.799,-0.246 -2.327,-0.737 -0.529,-0.491 -0.793,-1.107 -0.793,-1.849 0,-0.814 0.27,-1.411 0.81,-1.793 0.319,-0.229 0.905,-0.441 1.757,-0.636 l 0.868,-0.197 c 0.507,-0.112 0.878,-0.241 1.112,-0.387 0.234,-0.15 0.351,-0.362 0.351,-0.636 0,-0.468 -0.239,-0.788 -0.716,-0.961 -0.252,-0.09 -0.579,-0.135 -0.982,-0.135 -0.674,0 -1.149,0.171 -1.427,0.512 -0.152,0.187 -0.253,0.47 -0.305,0.849 z M 77.137,38.17 c 0,-0.629 0.222,-1.147 0.667,-1.554 0.445,-0.407 1.134,-0.61 2.067,-0.61 0.915,0 1.591,0.192 2.028,0.576 0.438,0.384 0.657,0.88 0.657,1.487 0,0.461 -0.152,0.845 -0.457,1.152 -0.308,0.304 -0.77,0.531 -1.387,0.681 -0.926,0.21 -1.465,0.357 -1.618,0.444 -0.153,0.082 -0.229,0.215 -0.229,0.399 0,0.146 0.071,0.273 0.215,0.382 0.144,0.109 0.384,0.163 0.722,0.163 0.411,0 0.702,-0.109 0.873,-0.326 0.09,-0.12 0.147,-0.283 0.168,-0.489 h 1.55 c -0.069,0.75 -0.337,1.277 -0.804,1.582 -0.466,0.306 -1.07,0.459 -1.811,0.459 -0.781,0 -1.386,-0.204 -1.817,-0.61 -0.43,-0.407 -0.645,-0.893 -0.645,-1.459 0,-0.48 0.138,-0.847 0.413,-1.102 0.275,-0.258 0.75,-0.474 1.423,-0.646 0.935,-0.229 1.475,-0.39 1.621,-0.484 0.145,-0.094 0.218,-0.231 0.218,-0.411 0,-0.187 -0.091,-0.327 -0.271,-0.421 -0.18,-0.094 -0.423,-0.14 -0.729,-0.14 -0.521,0 -0.878,0.106 -1.071,0.32 -0.109,0.12 -0.18,0.323 -0.213,0.607 z m -5.956,0 c 0,-0.629 0.222,-1.147 0.667,-1.554 0.445,-0.407 1.134,-0.61 2.067,-0.61 0.915,0 1.591,0.192 2.029,0.576 0.438,0.384 0.657,0.88 0.657,1.487 0,0.461 -0.153,0.845 -0.457,1.152 -0.308,0.304 -0.771,0.531 -1.388,0.681 -0.926,0.21 -1.465,0.357 -1.617,0.444 -0.153,0.082 -0.229,0.215 -0.229,0.399 0,0.146 0.071,0.273 0.215,0.382 0.143,0.109 0.384,0.163 0.722,0.163 0.411,0 0.702,-0.109 0.872,-0.326 0.091,-0.12 0.147,-0.283 0.169,-0.489 h 1.55 c -0.07,0.75 -0.338,1.277 -0.804,1.582 -0.467,0.306 -1.071,0.459 -1.811,0.459 -0.781,0 -1.387,-0.204 -1.817,-0.61 -0.431,-0.407 -0.645,-0.893 -0.645,-1.459 0,-0.48 0.137,-0.847 0.413,-1.102 0.275,-0.258 0.749,-0.474 1.422,-0.646 0.936,-0.229 1.476,-0.39 1.621,-0.484 0.145,-0.094 0.218,-0.231 0.218,-0.411 0,-0.187 -0.09,-0.327 -0.27,-0.421 -0.181,-0.094 -0.424,-0.14 -0.729,-0.14 -0.521,0 -0.878,0.106 -1.071,0.32 -0.109,0.12 -0.18,0.323 -0.213,0.607 z m -3.275,4.334 c -0.869,0 -1.575,-0.283 -2.119,-0.849 -0.544,-0.567 -0.816,-1.381 -0.816,-2.442 0,-1.133 0.301,-1.951 0.904,-2.453 0.603,-0.503 1.298,-0.754 2.087,-0.754 0.955,0 1.699,0.298 2.229,0.894 0.341,0.375 0.533,0.743 0.575,1.107 h -1.582 c -0.093,-0.18 -0.199,-0.32 -0.319,-0.422 -0.221,-0.187 -0.507,-0.281 -0.86,-0.281 -0.333,0 -0.618,0.077 -0.854,0.231 -0.39,0.247 -0.596,0.678 -0.62,1.293 h 4.315 c 0.008,0.529 -0.009,0.935 -0.051,1.216 -0.072,0.481 -0.229,0.903 -0.472,1.267 -0.269,0.413 -0.61,0.715 -1.024,0.906 -0.413,0.192 -0.878,0.287 -1.393,0.287 m 0,-1.321 c 0.366,0 0.672,-0.11 0.919,-0.33 0.247,-0.22 0.385,-0.543 0.413,-0.968 h -2.669 c 0.056,0.399 0.194,0.715 0.413,0.948 0.218,0.233 0.527,0.35 0.924,0.35 m -5.787,1.305 c -0.487,0 -0.889,-0.124 -1.207,-0.372 -0.176,-0.138 -0.364,-0.365 -0.562,-0.68 v 0.894 h -1.501 v -6.116 h 1.549 v 3.316 c 0,0.379 0.051,0.69 0.152,0.934 0.194,0.461 0.552,0.691 1.073,0.691 0.425,0 0.713,-0.157 0.864,-0.472 0.083,-0.172 0.124,-0.42 0.124,-0.742 v -3.727 h 1.587 v 4.126 c 0,0.768 -0.194,1.318 -0.582,1.65 -0.388,0.332 -0.887,0.498 -1.497,0.498 m -6.042,-6.274 h 1.571 v 6.127 h -1.571 z m 1.57,8.337 h -1.571 v -1.478 h 1.571 z M 49.761,38.17 c 0,-0.629 0.223,-1.147 0.668,-1.554 0.444,-0.407 1.133,-0.61 2.066,-0.61 0.916,0 1.592,0.192 2.029,0.576 0.438,0.384 0.657,0.88 0.657,1.487 0,0.461 -0.152,0.845 -0.457,1.152 -0.308,0.304 -0.771,0.531 -1.388,0.681 -0.926,0.21 -1.465,0.357 -1.617,0.444 -0.153,0.082 -0.229,0.215 -0.229,0.399 0,0.146 0.071,0.273 0.215,0.382 0.144,0.109 0.384,0.163 0.722,0.163 0.411,0 0.702,-0.109 0.872,-0.326 0.091,-0.12 0.147,-0.283 0.169,-0.489 h 1.55 c -0.069,0.75 -0.337,1.277 -0.804,1.582 -0.467,0.306 -1.07,0.459 -1.811,0.459 -0.781,0 -1.386,-0.204 -1.817,-0.61 -0.43,-0.407 -0.646,-0.893 -0.646,-1.459 0,-0.48 0.138,-0.847 0.413,-1.102 0.276,-0.258 0.751,-0.474 1.424,-0.646 0.935,-0.229 1.475,-0.39 1.62,-0.484 0.145,-0.094 0.218,-0.231 0.218,-0.411 0,-0.187 -0.09,-0.327 -0.27,-0.421 -0.18,-0.094 -0.424,-0.14 -0.729,-0.14 -0.521,0 -0.878,0.106 -1.071,0.32 -0.109,0.12 -0.18,0.323 -0.213,0.607 z m -6.19,4.171 v -3.693 c 0,-0.701 0.085,-1.231 0.255,-1.591 0.303,-0.652 0.892,-0.978 1.767,-0.978 0.303,0 0.568,0.041 0.794,0.124 0.226,0.082 0.46,0.235 0.702,0.461 0.08,0.071 0.148,0.153 0.206,0.247 0.057,0.094 0.094,0.15 0.108,0.169 v -0.866 h 1.506 v 6.127 h -1.571 v -3.333 c 0,-0.394 -0.051,-0.71 -0.152,-0.95 -0.194,-0.442 -0.555,-0.664 -1.081,-0.664 -0.411,0 -0.687,0.156 -0.827,0.467 -0.08,0.176 -0.12,0.439 -0.12,0.787 v 3.693 z M 39.873,44.5 h -3.872 v -8.286 h 3.61 c 0.407,0 0.785,0.037 1.132,0.112 0.348,0.075 0.65,0.214 0.906,0.416 0.227,0.176 0.416,0.394 0.567,0.652 0.238,0.39 0.357,0.831 0.357,1.321 0,0.476 -0.104,0.881 -0.312,1.215 -0.208,0.333 -0.517,0.577 -0.926,0.73 0.269,0.143 0.473,0.3 0.611,0.473 0.247,0.307 0.371,0.713 0.371,1.22 0,0.491 -0.122,0.912 -0.367,1.265 -0.408,0.573 -1.1,0.867 -2.077,0.882 m -0.302,-4.638 c 0.344,-0.003 0.611,-0.05 0.801,-0.14 0.34,-0.162 0.511,-0.458 0.511,-0.889 0,-0.509 -0.176,-0.854 -0.527,-1.034 -0.194,-0.097 -0.464,-0.146 -0.812,-0.146 h -1.945 v 2.209 z m -0.229,3.199 c 0.384,0 0.7,-0.043 0.947,-0.129 0.287,-0.124 0.43,-0.379 0.43,-0.765 0,-0.348 -0.108,-0.591 -0.325,-0.728 -0.217,-0.137 -0.5,-0.205 -0.848,-0.205 h -1.947 v 1.827 z" style="fill:#000000;fill-opacity:1;fill-rule:nonzero;stroke:none" id="path5247"/>
        </g>
      </g>
    </g>
  </g>
</svg>